<svg width="44" height="44" viewBox="0 0 44 44" fill="none" xmlns="http://www.w3.org/2000/svg">
<rect width="44" height="44" rx="10" fill="#7B9E89"/>
<path d="M20.5716 6.13535C20.1591 6.27715 19.998 6.38028 18.8572 7.21172C17.7293 8.04317 17.8131 8.01738 15.9568 8.0625C14.5259 8.09473 14.3519 8.11406 14.0748 8.23652C13.0822 8.6877 12.7535 9.13242 12.2121 10.7502C11.9929 11.4205 11.7609 12.065 11.6965 12.2004C11.5547 12.4775 11.3097 12.6902 10.1109 13.5732C8.75739 14.5594 8.4609 15.0428 8.45446 16.2158C8.44801 16.8346 8.46735 16.9055 8.85407 18.085C9.09255 18.8197 9.25368 19.4191 9.25368 19.5867C9.25368 19.7479 9.09255 20.3473 8.86051 21.0691C8.39645 22.4678 8.32555 22.9963 8.51247 23.6344C8.76383 24.5109 9.04098 24.8203 10.4332 25.8322C11.574 26.6637 11.7093 26.8184 11.9543 27.6047L12.109 28.0945L10.5105 30.7242C9.45993 32.4516 8.8734 33.4764 8.80895 33.702C8.57048 34.5656 9.15055 35.5195 10.0336 35.7064C10.2076 35.7451 10.9681 35.7773 11.7222 35.7773H13.0886L13.7332 37.0148C14.0877 37.698 14.4808 38.3684 14.6033 38.5102C14.9191 38.8646 15.2478 39 15.7957 39C16.3177 39 16.6593 38.8646 16.9558 38.5553C17.0654 38.4393 17.8775 37.1566 18.767 35.6936C20.0367 33.6117 20.4105 33.0381 20.5072 33.051C20.5716 33.0574 20.823 33.0961 21.0615 33.1412C21.416 33.2121 21.5836 33.2121 21.9316 33.1412C22.1765 33.0961 22.4279 33.0574 22.4924 33.051C22.5955 33.0381 22.95 33.5795 24.2326 35.6936C25.122 37.1502 25.9406 38.4393 26.0437 38.5553C26.3402 38.8646 26.6818 39 27.2039 39C27.7517 39 28.0804 38.8646 28.4027 38.5037C28.5252 38.3684 28.9183 37.6916 29.2728 37.0148L29.9109 35.7773H31.2773C32.0314 35.7773 32.792 35.7451 32.966 35.7064C33.849 35.5195 34.4291 34.5656 34.1906 33.702C34.1261 33.4764 33.5396 32.4516 32.489 30.7242L30.8906 28.0945L31.0453 27.6047C31.2902 26.8248 31.4256 26.6701 32.5599 25.8387C33.6943 25.0137 34.0681 24.6527 34.3002 24.1564C34.7062 23.2799 34.674 22.7063 34.139 21.0691C33.907 20.3473 33.7459 19.7479 33.7459 19.5867C33.7459 19.4191 33.907 18.8197 34.1455 18.085C34.5257 16.9377 34.5515 16.8217 34.5515 16.248C34.5515 15.0428 34.2099 14.5207 32.6953 13.425C32.141 13.0189 31.5867 12.5807 31.4771 12.4453C31.3095 12.2584 31.1613 11.8975 30.8261 10.8727C30.3363 9.40313 30.0914 8.97129 29.5242 8.57812C28.8603 8.12051 28.7765 8.10117 27.0427 8.05606C26.0695 8.03027 25.3863 7.98516 25.2574 7.94004C25.1478 7.89492 24.5548 7.50176 23.9425 7.06348C22.647 6.13535 22.3248 6 21.4804 6C21.1195 6.00645 20.8295 6.04512 20.5716 6.13535ZM22.0218 7.19238C22.1765 7.25039 22.7244 7.59844 23.24 7.97227C24.8578 9.15176 24.8771 9.1582 26.7527 9.1582C28.1449 9.1582 28.364 9.19043 28.7701 9.46758C29.1955 9.75117 29.3373 10.009 29.782 11.3496C30.375 13.135 30.4072 13.1801 32.0056 14.3467C33.6363 15.5455 33.6943 15.7389 33.024 17.8207C32.6566 18.9486 32.6244 19.0969 32.6244 19.5996C32.6308 20.0895 32.6695 20.2699 33.024 21.3527C33.4881 22.7514 33.5203 23.093 33.2689 23.6279C33.082 24.0275 32.9789 24.1178 31.8058 24.9686C30.4201 25.9805 30.3234 26.1029 29.7949 27.7594C29.3888 29.0291 29.2535 29.3127 28.9634 29.5576C28.5187 29.9314 28.3382 29.9766 27.075 29.9766C25.6892 29.983 25.0769 30.0539 24.6322 30.2602C24.4517 30.3439 23.8588 30.7371 23.3109 31.1367C22.7631 31.5363 22.2216 31.9037 22.1056 31.9488C21.8285 32.0648 21.1711 32.0648 20.8939 31.9488C20.7779 31.9037 20.2365 31.5363 19.6886 31.1367C19.1408 30.7371 18.5414 30.3439 18.348 30.2537C17.884 30.0475 17.3103 29.983 15.9246 29.9766C14.8998 29.9766 14.7322 29.9572 14.4744 29.8412C13.8556 29.5641 13.7074 29.3191 13.2047 27.7594C12.6697 26.0965 12.5924 25.9805 11.1293 24.917C9.982 24.0855 9.89176 23.9953 9.70485 23.5764C9.47926 23.0672 9.51794 22.7385 9.96911 21.3656C10.33 20.2699 10.3687 20.0895 10.3752 19.5996C10.3752 19.0969 10.3429 18.9486 9.97555 17.8143C9.30524 15.7389 9.36325 15.5455 10.9939 14.3467C12.5924 13.1801 12.6246 13.135 13.2175 11.3496C13.6623 10.009 13.8041 9.75117 14.2295 9.46758C14.6355 9.19043 14.8547 9.1582 16.2468 9.1582C18.1224 9.1582 18.1482 9.15176 19.7595 7.97227C20.2752 7.59844 20.8101 7.25039 20.9519 7.19883C21.2935 7.07637 21.6738 7.07637 22.0218 7.19238ZM12.9597 30.0732C13.224 30.4148 13.7203 30.7822 14.1521 30.9563C14.4679 31.0787 14.6677 31.098 16.0857 31.1367C17.4457 31.1689 17.697 31.1883 17.884 31.2914C18.2191 31.4719 19.4373 32.3678 19.4115 32.4193C18.3674 34.1918 16.2275 37.6529 16.1115 37.7561C15.9181 37.9301 15.699 37.943 15.5121 37.7883C15.4347 37.7303 15.0287 37.0277 14.6162 36.2285C14.0748 35.1844 13.817 34.759 13.7009 34.701C13.5849 34.643 13.0886 34.6172 11.8769 34.6172H10.214L10.0529 34.4496C9.92399 34.3271 9.89176 34.2369 9.9111 34.0822C9.92399 33.9598 10.4654 33.0059 11.2517 31.6975C12.5215 29.6027 12.5795 29.5318 12.6697 29.6672C12.7213 29.7445 12.8566 29.9314 12.9597 30.0732ZM31.7736 31.749C32.6695 33.225 33.1013 33.9984 33.1013 34.1209C33.1013 34.224 33.0369 34.3658 32.9402 34.4561L32.7855 34.6172H31.1226C29.9302 34.6172 29.4146 34.643 29.305 34.701C29.189 34.7525 28.9248 35.2037 28.3898 36.2285C27.9709 37.0277 27.5648 37.7303 27.4875 37.7883C27.3006 37.943 27.0814 37.9301 26.8881 37.7561C26.8043 37.6787 26.0566 36.4992 25.2316 35.1328C24.4066 33.7664 23.6976 32.5869 23.6461 32.516C23.5623 32.3871 23.5945 32.3549 24.2326 31.8908C25.2896 31.1238 25.1027 31.1754 26.9138 31.1303C28.1642 31.1045 28.5509 31.0723 28.7765 30.9885C29.3695 30.7564 29.8722 30.3568 30.2074 29.8412C30.317 29.6672 30.4201 29.5318 30.4265 29.5383C30.4394 29.5512 31.0388 30.5437 31.7736 31.749Z" fill="#07393C"/>
<path d="M20.5331 9.22909C18.7477 9.39667 16.9624 10.0541 15.5058 11.0789C14.7388 11.6203 13.5335 12.8191 13.0114 13.5603C12.238 14.6625 11.5999 16.1256 11.3099 17.4598C11.1423 18.2525 11.0714 20.0894 11.1809 20.908C11.7804 25.4133 15.1835 28.9904 19.663 29.8219C20.6298 30.0023 22.5763 29.9894 23.4979 29.7896C27.9774 28.8357 31.2259 25.3682 31.8188 20.908C31.9284 20.0894 31.8575 18.2525 31.6899 17.4598C30.9036 13.8117 28.2546 10.8469 24.7548 9.70604C23.485 9.2871 21.8415 9.10663 20.5331 9.22909ZM23.4979 10.531C26.727 11.2851 29.3181 13.6506 30.3171 16.7637C30.6458 17.7949 30.7425 18.4201 30.7425 19.5674C30.7425 22.139 29.8466 24.2789 28.0161 26.1158C26.2114 27.9205 24.02 28.8293 21.4999 28.8357C18.9927 28.8357 16.7884 27.914 14.9837 26.1158C13.585 24.7172 12.7407 23.1316 12.3733 21.2109C12.2186 20.373 12.2122 18.7617 12.3733 17.956C13.1532 13.9922 16.1632 11.066 20.1399 10.415C20.9907 10.2732 22.6343 10.3312 23.4979 10.531Z" fill="#07393C"/>
<path d="M20.8941 13.1801C20.3527 13.3799 20.2174 13.5604 19.5213 14.9655L18.8703 16.2932L17.5619 16.4737C16.84 16.5703 16.1439 16.6864 16.0086 16.7379C15.6348 16.8668 15.3512 17.1117 15.1449 17.4856C14.9838 17.7821 14.958 17.8981 14.958 18.3106C14.958 18.678 14.9967 18.8584 15.0998 19.0582C15.2545 19.3483 15.2738 19.3676 16.434 20.502L17.259 21.3076L17.027 22.5774C16.898 23.2735 16.7949 23.9567 16.7949 24.0985C16.7949 24.5045 16.9754 24.9299 17.2848 25.2328C17.665 25.6131 18.0195 25.742 18.5803 25.7098C18.9928 25.6905 19.0895 25.6518 20.2625 25.0266L21.5 24.3627L22.7439 25.0266L23.9814 25.6905H24.5293C25.1545 25.6905 25.3607 25.6067 25.7539 25.2006C26.0246 24.917 26.2051 24.4852 26.2051 24.092C26.2051 23.9567 26.102 23.2735 25.973 22.5709L25.7475 21.3012L26.5402 20.5342C27.7004 19.3934 27.7455 19.3547 27.9002 19.0582C28.0033 18.8584 28.042 18.6844 28.042 18.3106C28.042 17.8981 28.0162 17.7821 27.8551 17.4856C27.6488 17.1117 27.3652 16.8668 26.9914 16.7379C26.8561 16.6864 26.16 16.5703 25.4381 16.4737L24.1232 16.2932L23.5496 15.0944C22.8922 13.728 22.7697 13.5475 22.3637 13.309C21.9963 13.0963 21.2938 13.0319 20.8941 13.1801ZM21.7578 14.2758C21.8738 14.3403 22.1123 14.7656 22.6279 15.8098C23.4658 17.5114 23.1822 17.318 25.2254 17.5951C26.4242 17.7563 26.6176 17.8014 26.7594 17.9303C26.8689 18.0334 26.9141 18.143 26.9141 18.317C26.9141 18.5426 26.8496 18.6199 25.7539 19.677C24.6389 20.7533 24.5938 20.8114 24.5938 21.0498C24.5938 21.1852 24.6969 21.8813 24.8258 22.5903C24.9547 23.3057 25.0643 23.9696 25.0643 24.0727C25.0643 24.2789 24.742 24.627 24.5422 24.627C24.4842 24.627 23.8074 24.2918 23.0469 23.8858C22.2863 23.4797 21.5902 23.1446 21.5 23.1446C21.4098 23.1446 20.7137 23.4797 19.9531 23.8858C19.1926 24.2918 18.5158 24.627 18.4578 24.627C18.3934 24.627 18.2516 24.5432 18.142 24.4465C17.8842 24.2145 17.8842 24.2209 18.1742 22.6032C18.5158 20.6953 18.6125 20.9983 17.2461 19.677C16.1504 18.6199 16.0859 18.5426 16.0859 18.317C16.0859 18.0463 16.2664 17.8336 16.5371 17.7692C16.6273 17.7434 17.3105 17.6467 18.0582 17.5436C18.8059 17.4405 19.4826 17.3244 19.56 17.2858C19.6566 17.2342 19.9273 16.7379 20.3979 15.7776C20.9135 14.7076 21.1262 14.3274 21.2486 14.2694C21.4549 14.1727 21.5645 14.1727 21.7578 14.2758Z" fill="#07393C"/>
</svg>
