<svg width="44" height="44" viewBox="0 0 44 44" fill="none" xmlns="http://www.w3.org/2000/svg">
<rect width="44" height="44" rx="10" fill="#7B9E89"/>
<path d="M20.6299 6.03868C19.1733 6.25138 18.4965 6.43829 17.6006 6.87657C16.1762 7.56622 15.1901 8.6877 14.8614 9.97032C14.2877 12.2197 15.6735 15.7647 18.1162 18.3106L18.7028 18.9229L18.5868 27.8496C18.4643 37.6981 18.4514 37.2147 18.8575 37.8076C19.4246 38.6262 20.7975 39.1289 22.0028 38.9549C23.3369 38.7551 24.2586 38.0397 24.4649 37.0342C24.51 36.815 24.4907 33.9018 24.4133 27.8174L24.2973 18.9229L24.8838 18.3106C27.333 15.7647 28.7123 12.2197 28.1387 9.97032C27.6553 8.0754 25.7797 6.63165 23.2016 6.16114C22.6409 6.05802 21.0166 5.98067 20.6299 6.03868ZM23.1114 7.44376C24.1555 7.66934 24.9741 8.01739 25.6637 8.53946C26.1664 8.91329 26.4758 9.29356 26.7401 9.84786C26.9141 10.2281 26.9463 10.3699 26.9657 10.9371C27.0366 12.6645 26.1278 14.843 24.5229 16.7959C24.1748 17.2213 23.4981 17.9238 23.4981 17.8594C23.4981 17.84 23.7172 17.318 23.9815 16.6992C24.2457 16.0805 24.4649 15.5197 24.4649 15.4553C24.4649 14.9139 23.743 14.6238 23.3821 15.017C23.2854 15.1201 22.9502 15.8162 22.6344 16.5639L22.0608 17.9238H21.5H20.9393L20.3657 16.5639C20.0498 15.8162 19.7147 15.1201 19.618 15.017C19.2571 14.6238 18.5352 14.9139 18.5352 15.4553C18.5352 15.5197 18.7543 16.0805 19.0186 16.6992C19.2828 17.318 19.502 17.84 19.502 17.8594C19.502 17.9238 18.8252 17.2213 18.4772 16.7959C16.8723 14.843 15.9635 12.6645 16.0344 10.9371C16.0537 10.3699 16.086 10.2281 16.26 9.84786C16.5243 9.29356 16.8336 8.91329 17.3364 8.53946C18.0582 7.99161 19.0573 7.58555 20.0498 7.42442C20.3012 7.38575 20.5719 7.34063 20.6621 7.32774C21.0037 7.26974 22.6537 7.34708 23.1114 7.44376ZM23.0469 19.8574V20.502H21.5H19.9532V19.8574V19.2129H21.5H23.0469V19.8574ZM23.0727 24.0598C23.0985 25.3102 23.1436 28.6939 23.1823 31.5814L23.2467 36.8215L23.0985 37.0406C23.0018 37.1824 22.802 37.3371 22.5313 37.4725C22.151 37.6594 22.0608 37.6787 21.5 37.6787C20.9393 37.6787 20.8491 37.6594 20.4688 37.4725C20.1981 37.3371 19.9983 37.1824 19.9016 37.0406L19.7534 36.8215L19.8178 31.5814C19.8565 28.6939 19.908 25.3102 19.9274 24.0598L19.966 21.791H21.5H23.034L23.0727 24.0598Z" fill="#07393C"/>
</svg>
