<svg width="44" height="44" viewBox="0 0 44 44" fill="none" xmlns="http://www.w3.org/2000/svg">
<rect width="44" height="44" rx="10" fill="#7B9E89"/>
<path opacity="0.912" fill-rule="evenodd" clip-rule="evenodd" d="M16.8951 14.0229C22.4076 13.8483 27.671 14.6731 32.6854 16.4976C33.2712 17.2556 33.039 17.7505 31.9887 17.9824C26.5225 16.0065 20.8206 15.3259 14.8826 15.9408C13.3746 16.1595 11.9297 16.5308 10.5481 17.0544C9.64215 17.3068 9.12614 17.0594 9 16.312C9.02215 16.0458 9.17696 15.8396 9.46442 15.6933C11.8377 14.7864 14.3146 14.2296 16.8951 14.0229Z" fill="#07393C"/>
<path opacity="0.907" fill-rule="evenodd" clip-rule="evenodd" d="M12.901 24C14.4592 24.9291 16.0833 25.7872 17.7734 26.5745C22.8549 28.0034 27.4228 27.2112 31.4771 24.198C32.8858 23.925 33.3172 24.3871 32.7713 25.5843C32.061 26.0031 31.3758 26.4431 30.7158 26.9045C31.1211 27.3207 31.4256 27.7828 31.6293 28.2908C31.5053 29.0882 30.9978 29.3523 30.1067 29.0829C29.6664 28.6033 29.2096 28.1412 28.7364 27.6967C28.2234 27.9176 27.7159 28.1377 27.2137 28.3568C27.4797 28.7521 27.6827 29.1702 27.8228 29.611C27.4184 30.5182 26.7839 30.6723 25.9195 30.0731C25.6897 29.5854 25.3852 29.1454 25.0059 28.7529C24.4763 28.8623 23.9434 28.9504 23.4072 29.0169C23.4324 29.5469 23.407 30.075 23.331 30.6012C22.9414 30.9774 22.4592 31.0875 21.8845 30.9313C21.7017 30.8121 21.5747 30.6581 21.5039 30.4692C21.4279 29.9871 21.4026 29.503 21.4277 29.0169C20.8105 28.9266 20.2014 28.9266 19.6006 29.0169C19.397 29.7293 18.9148 30.2135 18.1541 30.4692C17.2344 30.3616 16.9299 29.9216 17.2405 29.149C17.4386 28.8978 17.5402 28.6338 17.545 28.3568C17.0374 28.102 16.5045 27.9479 15.9463 27.8947C15.588 28.3369 15.1819 28.7329 14.7282 29.0829C13.8746 29.286 13.3671 29.022 13.2055 28.2908C13.4829 27.7664 13.8381 27.2823 14.2714 26.8385C13.7217 26.5819 13.2142 26.2739 12.7488 25.9144C11.702 25.1769 11.7528 24.5388 12.901 24Z" fill="#07393C"/>
</svg>
