<svg width="44" height="44" viewBox="0 0 44 44" fill="none" xmlns="http://www.w3.org/2000/svg">
<rect width="44" height="44" rx="10" fill="#7B9E89"/>
<path opacity="0.91" fill-rule="evenodd" clip-rule="evenodd" d="M19.4688 17.9364C19.6971 17.9163 19.9056 17.9551 20.0943 18.0528C20.1434 18.3438 20.1434 18.6348 20.0943 18.9259C19.8245 19.1587 19.5547 19.1587 19.2849 18.9259C19.2358 18.6348 19.2358 18.3438 19.2849 18.0528C19.3581 18.0199 19.4194 17.9811 19.4688 17.9364Z" fill="#263D42"/>
<path opacity="0.913" fill-rule="evenodd" clip-rule="evenodd" d="M33.0797 39C32.9756 39 32.8714 39 32.7673 39C32.6745 38.9438 32.5834 38.8787 32.494 38.8048C32.4419 38.588 32.4419 38.3711 32.494 38.1542C32.971 35.7048 33.4395 33.2543 33.8997 30.8026C34.4529 28.3087 34.1015 25.9015 32.8454 23.5811C32.5273 23.5274 32.2149 23.5599 31.9083 23.6787C28.5492 25.0881 25.6987 27.029 23.357 29.5015C22.7354 30.1072 22.3188 30.8011 22.1075 31.5833C21.9993 33.9907 21.9733 36.3979 22.0294 38.8048C21.94 38.8787 21.8489 38.9438 21.7561 39C21.652 39 21.5478 39 21.4437 39C21.2895 38.9254 21.1723 38.817 21.0923 38.6747C21.0176 37.8951 20.9656 37.1144 20.9361 36.3326C20.4875 37.145 20.019 37.9474 19.5304 38.7398C19.4213 38.8419 19.3042 38.9287 19.179 39C19.0749 39 18.9707 39 18.8666 39C18.5736 38.8537 18.4825 38.6368 18.5933 38.3494C19.5705 36.8946 20.3775 35.3766 21.0142 33.7953C21.0532 33.08 21.0663 32.3644 21.0532 31.6484C20.3638 31.5617 19.7131 31.3774 19.1009 31.0954C17.779 30.4251 16.5555 29.6444 15.4305 28.7533C14.0035 27.6189 12.6498 26.437 11.3696 25.2076C10.9774 26.4737 10.652 27.7532 10.3934 29.0461C9.74368 32.2929 9.14497 35.5459 8.59727 38.8048C8.50784 38.8787 8.41674 38.9438 8.32394 39C8.21982 39 8.11569 39 8.01156 39C7.79498 38.9053 7.66482 38.7536 7.62109 38.5446C8.19183 34.9761 8.85562 31.4197 9.61249 27.875C9.87501 26.673 10.1874 25.4803 10.5496 24.2968C11.2796 22.4074 11.9303 20.499 12.502 18.5716C12.7143 17.7958 12.8965 17.0151 13.0486 16.2295C13.1087 15.3819 13.0827 14.5361 12.9705 13.6923C12.4753 11.2932 12.0457 8.88601 11.682 6.47077C11.724 6.05682 11.9844 5.91586 12.4629 6.04789C12.528 6.1021 12.5931 6.15632 12.6581 6.21054C12.9984 8.497 13.415 10.774 13.9076 13.0417C14.2479 14.86 14.1437 16.6599 13.5953 18.4415C13.2387 19.7599 12.8092 21.0611 12.3067 22.345C15.1425 23.8664 18.1882 24.2459 21.4437 23.4836C23.5614 22.8617 25.6439 22.1677 27.6912 21.4017C28.6875 21.0912 29.7027 20.8309 30.7369 20.621C29.5237 19.2611 28.3393 17.884 27.1836 16.4898C26.6518 15.5175 26.4436 14.4982 26.5588 13.432C26.6077 12.9301 26.6858 12.4313 26.7931 11.9357C27.3014 10.09 27.8221 8.24668 28.355 6.40571C28.5307 5.99761 28.8431 5.91086 29.2921 6.14548C29.3312 6.24307 29.3702 6.34065 29.4093 6.43824C28.7804 8.56635 28.1947 10.7024 27.6522 12.8465C27.3996 14.0261 27.5818 15.1537 28.1988 16.2295C29.2359 17.4622 30.3032 18.6766 31.4007 19.8728C32.7061 21.3753 33.7474 23.0017 34.5244 24.7522C35.0767 26.3922 35.2589 28.062 35.0711 29.7617C34.5837 32.7399 34.037 35.711 33.4311 38.6747C33.3511 38.817 33.2339 38.9254 33.0797 39ZM31.0492 21.4342C31.1889 21.4157 31.3191 21.4373 31.4397 21.4993C31.7261 21.8896 32.0124 22.28 32.2987 22.6703C31.2745 22.9452 30.3113 23.3247 29.4093 23.8089C26.5481 25.3683 24.0881 27.2875 22.0294 29.5665C21.754 29.9387 21.5197 30.3291 21.3266 30.7376C20.9965 30.7971 20.6711 30.7646 20.3504 30.64C19.3207 30.2005 18.3575 29.6801 17.4609 29.0786C15.3586 27.555 13.4323 25.8961 11.682 24.1016C11.7769 23.8102 11.894 23.5283 12.0334 23.2559C15.2396 24.8225 18.6107 25.137 22.1465 24.1992C24.2987 23.5195 26.4334 22.8039 28.5502 22.0523C29.3855 21.8237 30.2185 21.6177 31.0492 21.4342Z" fill="#263D42"/>
</svg>
