<svg width="44" height="44" viewBox="0 0 44 44" fill="none" xmlns="http://www.w3.org/2000/svg">
<rect width="44" height="44" rx="10" fill="#7B9E89"/>
<path d="M14.0558 10.6406C13.9011 10.7115 13.2953 11.2723 12.6185 11.949C11.2908 13.2832 11.265 13.3348 11.6453 13.7666L11.8515 13.9986L11.671 14.1855L11.4841 14.3789H10.5689C9.82769 14.3789 9.62789 14.3982 9.55054 14.4756C9.49898 14.5336 9.35074 14.8881 9.22828 15.2684L9.00914 15.958L8.20992 15.9902C7.48804 16.0225 7.38492 16.0418 7.07554 16.2158C6.88218 16.3189 6.64371 16.5123 6.54058 16.6412C6.14097 17.1504 6.16031 16.6734 6.16031 25.2973V33.167L6.31499 33.4893C6.50191 33.876 6.80484 34.1789 7.19156 34.3529C7.4816 34.4818 7.5396 34.4883 21.5002 34.4883H35.5187L35.841 34.3336C36.2277 34.1467 36.5306 33.8438 36.7046 33.457C36.8336 33.1734 36.84 33.0703 36.84 25.2973C36.84 16.6734 36.8593 17.1504 36.4597 16.6412C36.3566 16.5123 36.1181 16.3189 35.9248 16.2094L35.5832 16.0225L24.0976 16.0031L12.6121 15.9902L12.4574 15.4875L12.3027 14.9912L12.4316 14.843L12.5669 14.7012L12.7796 14.9074C12.9472 15.0686 13.0439 15.1137 13.2244 15.1072C13.4435 15.1008 13.5595 15.0041 14.6166 13.9471C15.8347 12.7482 16.0861 12.4002 16.0861 11.9297C16.0861 11.3625 15.7703 10.8533 15.2804 10.6342C14.9324 10.473 14.3845 10.4795 14.0558 10.6406ZM14.9904 11.6074C15.2353 11.8523 15.1644 11.9684 14.1718 12.9738L13.2244 13.9277L12.9279 13.6377L12.6378 13.3477L13.5724 12.4131C14.5714 11.4141 14.7132 11.3303 14.9904 11.6074ZM11.4777 15.6164C11.5293 15.7969 11.5744 15.958 11.5744 15.9709C11.5744 15.9838 11.2263 15.9902 10.7945 15.9902C10.15 15.9902 10.021 15.9773 10.0468 15.9C10.0662 15.8484 10.1177 15.6938 10.1628 15.5455L10.2402 15.2812H10.8074H11.3746L11.4777 15.6164ZM35.3898 17.0473C35.5123 17.0988 35.6734 17.2406 35.7443 17.3566C35.8732 17.5693 35.8732 17.6596 35.8732 25.2586C35.8732 33.7342 35.899 33.167 35.4865 33.4184C35.3189 33.515 34.1652 33.5215 21.5002 33.5215C8.83511 33.5215 7.6814 33.515 7.51382 33.4184C7.10132 33.167 7.1271 33.7342 7.1271 25.2586C7.1271 17.6596 7.1271 17.5693 7.25601 17.3566C7.51382 16.9312 6.45679 16.9635 21.4873 16.957C33.25 16.957 35.1964 16.9699 35.3898 17.0473Z" fill="#07393C"/>
<path d="M9.02832 21.1143L8.86719 21.2689V26.3672V31.4654L9.02832 31.6201L9.18301 31.7812H21.5H33.817L33.9717 31.6201L34.1328 31.4654V26.3672V21.2689L33.9717 21.1143L33.817 20.9531H21.5H9.18301L9.02832 21.1143ZM33.166 22.7256V23.5312H21.5H9.83398V22.7256V21.9199H21.5H33.166V22.7256ZM33.166 27.6562V30.8145H21.5H9.83398V27.6562V24.498H21.5H33.166V27.6562Z" fill="#07393C"/>
</svg>
