<svg width="40" height="40" viewBox="0 0 40 40" fill="none" xmlns="http://www.w3.org/2000/svg">
<path opacity="0.913" fill-rule="evenodd" clip-rule="evenodd" d="M18.8674 2.9297C22.9453 2.6597 26.2656 4.092 28.8283 7.22658C29.347 7.97751 29.7637 8.78478 30.0783 9.64845C33.276 13.1404 34.4219 17.229 33.5158 21.9141C33.0113 24.6032 31.8004 26.9079 29.883 28.8281C29.8089 28.8659 29.7308 28.8788 29.6486 28.8672C28.1957 32.703 25.5656 35.3983 21.758 36.9531C20.2331 37.4751 18.7487 37.3709 17.3049 36.6406C13.9339 35.0146 11.5642 32.4626 10.1955 28.9844C7.74955 26.5784 6.4084 23.6487 6.17205 20.1953C5.81419 16.112 7.03815 12.5963 9.84392 9.64845C11.1034 6.41013 13.4081 4.31377 16.758 3.35939C17.4651 3.18116 18.1682 3.03794 18.8674 2.9297ZM28.008 7.9297C26.501 7.00747 24.8865 6.31737 23.1642 5.85939C22.4367 5.35838 21.6293 5.11099 20.7424 5.1172C20.0163 5.14367 19.2871 5.15669 18.5549 5.15626C17.9069 5.26803 17.308 5.5024 16.758 5.85939C15.0357 6.31737 13.4212 7.00747 11.9142 7.9297C13.9277 5.29545 16.6099 3.96733 19.9611 3.94533C23.3123 3.96733 25.9945 5.29545 28.008 7.9297ZM18.633 6.13283C21.9411 6.31983 24.988 7.2964 27.7736 9.06251C31.9378 12.3341 33.5134 16.5919 32.5002 21.836C32.1121 23.7844 31.3049 25.5292 30.0783 27.0703C29.9087 25.306 29.8045 23.5352 29.7658 21.7578C29.2395 18.5759 27.5599 16.2191 24.7267 14.6875C22.5524 13.5969 20.2606 12.8677 17.8517 12.5C16.9879 12.1309 16.428 11.4928 16.172 10.586C15.6917 8.36876 16.512 6.88437 18.633 6.13283ZM15.2736 7.38283C15.3558 7.37115 15.4339 7.38417 15.508 7.42189C14.9147 8.68673 14.8496 9.9758 15.3127 11.2891C15.7753 12.4027 16.5695 13.171 17.6955 13.5938C15.5868 14.2632 13.777 15.396 12.2658 16.9922C11.2142 18.2103 10.537 19.6166 10.2345 21.211C10.1328 23.168 10.0026 25.1211 9.84392 27.0703C8.01611 24.6977 7.11769 22.0024 7.14861 18.9844C7.38322 13.3682 10.0916 9.50103 15.2736 7.38283ZM19.7267 14.0235C22.0127 14.4159 24.0701 15.3143 25.8986 16.7188C27.3781 17.9649 28.3026 19.5405 28.672 21.4453C28.7944 23.3716 28.9116 25.2987 29.0236 27.2266C28.4739 29.7195 27.25 31.8158 25.3517 33.5156C24.1493 34.5861 22.7951 35.4194 21.2892 36.0156C20.3342 36.3842 19.3838 36.3711 18.4377 35.9766C14.7236 34.424 12.2236 31.7417 10.9377 27.9297C10.9873 25.7662 11.0914 23.6047 11.2502 21.4453C11.7594 19.0589 13.0485 17.223 15.1174 15.9375C16.5682 15.0816 18.1046 14.4435 19.7267 14.0235ZM19.1017 30.586C19.3835 30.7142 19.6699 30.8185 19.9611 30.8985C20.2337 30.8408 20.4942 30.7367 20.7424 30.586C21.006 30.6956 21.2665 30.8127 21.5236 30.9375C21.3577 31.0308 21.1754 31.0828 20.9767 31.0938C20.1403 31.1572 19.307 31.1311 18.4767 31.0156C18.4507 30.9896 18.4246 30.9635 18.3986 30.9375C18.6445 30.8263 18.8789 30.7091 19.1017 30.586ZM18.3986 32.1485C19.4274 32.1603 20.4691 32.1473 21.5236 32.1094C20.4959 32.772 19.4542 32.7849 18.3986 32.1485Z" fill="#263D42"/>
<path opacity="0.898" fill-rule="evenodd" clip-rule="evenodd" d="M17.5394 22.6953C18.1074 22.6591 18.3287 22.9195 18.2034 23.4766C16.662 24.871 15.0084 25.0142 13.2425 23.9063C12.837 23.6067 12.7849 23.2682 13.0862 22.8907C13.2946 22.8385 13.5029 22.8385 13.7112 22.8907C15.041 23.9279 16.3171 23.8628 17.5394 22.6953Z" fill="#263D42"/>
<path opacity="0.901" fill-rule="evenodd" clip-rule="evenodd" d="M26.2891 22.6953C26.9344 22.6875 27.1427 22.9739 26.9141 23.5547C25.7301 24.6535 24.3759 24.9269 22.8516 24.375C22.292 24.1922 21.9014 23.8407 21.6797 23.3203C21.7639 22.8832 22.0244 22.74 22.4609 22.8907C23.7991 23.927 25.0751 23.8619 26.2891 22.6953Z" fill="#263D42"/>
<path opacity="0.918" fill-rule="evenodd" clip-rule="evenodd" d="M18.945 29.4922C19.3165 29.4823 19.655 29.5864 19.9606 29.8047C20.266 29.573 20.6045 29.4818 20.9763 29.5313C21.7852 29.8641 22.5534 30.2677 23.2809 30.7422C23.0786 32.3771 22.1541 33.3276 20.5075 33.5938C18.5746 33.8197 17.2855 33.0254 16.6403 31.211C16.5526 30.941 16.6177 30.7196 16.8356 30.5469C17.5571 30.2163 18.2602 29.8647 18.945 29.4922ZM19.1013 30.586C18.8784 30.7091 18.6441 30.8263 18.3981 30.9375C18.4241 30.9636 18.4502 30.9896 18.4763 31.0157C19.3065 31.1311 20.1398 31.1572 20.9763 31.0938C21.1749 31.0828 21.3573 31.0308 21.5231 30.9375C21.266 30.8128 21.0055 30.6956 20.7419 30.586C20.4937 30.7367 20.2332 30.8408 19.9606 30.8985C19.6694 30.8185 19.383 30.7143 19.1013 30.586ZM18.3981 32.1485C19.4537 32.785 20.4954 32.772 21.5231 32.1094C20.4686 32.1473 19.427 32.1603 18.3981 32.1485Z" fill="#263D42"/>
</svg>
