<svg width="44" height="44" viewBox="0 0 44 44" fill="none" xmlns="http://www.w3.org/2000/svg">
<rect width="44" height="44" rx="10" fill="#7B9E89"/>
<g clip-path="url(#clip0_218_1416)">
<path opacity="0.935" fill-rule="evenodd" clip-rule="evenodd" d="M37.9678 22.2745C37.9678 22.4464 37.9678 22.6182 37.9678 22.7901C36.3904 25.0227 34.4783 26.924 32.2314 28.4942C30.0783 29.8779 27.7258 30.6836 25.1738 30.9112C24.1176 30.8861 23.0971 30.682 22.1123 30.2989C21.6826 30.2559 21.253 30.2559 20.8232 30.2989C19.1757 30.8311 17.5214 30.8526 15.8604 30.3633C11.3132 29.1518 7.68229 26.6489 4.96777 22.8545C4.96777 22.6826 4.96777 22.5108 4.96777 22.3389C5.61219 21.8872 6.23524 21.4038 6.83691 20.8887C8.42077 19.3248 10.0536 17.8209 11.7354 16.377C12.6945 15.607 13.7472 14.9839 14.8936 14.5079C16.4087 13.8938 17.8911 13.9583 19.3408 14.7012C19.7531 15.0059 20.1828 15.2852 20.6299 15.5391C21.1025 15.7539 21.5752 15.7539 22.0479 15.5391C22.6924 15.1524 23.3369 14.7657 23.9814 14.379C25.3191 13.8994 26.6512 13.9208 27.9775 14.4434C28.8218 14.7902 29.6168 15.2199 30.3623 15.7325C32.4129 17.3313 34.368 19.05 36.2275 20.8887C36.8146 21.3526 37.3947 21.8145 37.9678 22.2745ZM25.335 15.1202C26.2831 15.0779 27.1855 15.2605 28.042 15.668C29.438 16.4198 30.727 17.3221 31.9092 18.375C33.2004 19.6019 34.511 20.8051 35.8408 21.9844C33.8054 22.2096 31.7644 22.317 29.7178 22.3067C29.2205 22.2663 28.7264 22.2019 28.2354 22.1133C26.755 21.7808 25.2726 21.4585 23.7881 21.1465C22.3731 20.9585 20.9552 20.937 19.5342 21.0821C17.7539 21.3609 15.9708 21.6187 14.1846 21.8555C11.8864 21.9453 9.58753 21.9883 7.28809 21.9844C8.85852 20.4783 10.4484 18.9959 12.0576 17.5372C13.0475 16.7411 14.1217 16.0751 15.2803 15.5391C16.5179 15.0121 17.721 15.0766 18.8896 15.7325C19.5984 16.3607 20.4256 16.7152 21.3711 16.7959C21.8112 16.7896 22.2302 16.6929 22.6279 16.5059C23.2511 16.0868 23.8957 15.7 24.5615 15.3457C24.8273 15.2689 25.0851 15.1937 25.335 15.1202ZM20.2432 22.0811C22.1039 21.9763 23.9301 22.1804 25.7217 22.6934C22.9218 23.3796 20.1289 23.3366 17.3428 22.5645C18.3085 22.3515 19.2753 22.1904 20.2432 22.0811ZM8.70605 23.0479C10.4464 23.0371 12.1867 23.0479 13.9268 23.0801C14.3797 23.1325 14.8308 23.197 15.2803 23.2735C16.6081 23.5732 17.9401 23.8525 19.2764 24.1114C20.9086 24.3219 22.5414 24.3219 24.1748 24.1114C25.6504 23.8475 27.1328 23.6327 28.6221 23.4668C31.1822 23.4108 33.7388 23.3035 36.292 23.1446C34.1084 26.1012 31.2724 28.1637 27.7842 29.3321C26.5899 29.7698 25.3653 29.8987 24.1104 29.7188C23.4907 29.5337 22.8677 29.3619 22.2412 29.2032C21.7256 29.1602 21.21 29.1602 20.6943 29.2032C20.1406 29.3524 19.5819 29.4813 19.0186 29.5899C18.5029 29.6329 17.9873 29.6329 17.4717 29.5899C13.0786 28.7485 9.46921 26.6216 6.64355 23.209C6.68653 23.1876 6.72949 23.166 6.77246 23.1446C7.42828 23.1336 8.07281 23.1014 8.70605 23.0479Z" fill="#07393C"/>
</g>
<defs>
<clipPath id="clip0_218_1416">
<rect width="33" height="33" fill="white" transform="translate(5 6)"/>
</clipPath>
</defs>
</svg>
