<svg width="44" height="44" viewBox="0 0 44 44" fill="none" xmlns="http://www.w3.org/2000/svg">
<rect width="44" height="44" rx="10" fill="#7B9E89"/>
<g clip-path="url(#clip0_218_2231)">
<path opacity="0.932" fill-rule="evenodd" clip-rule="evenodd" d="M37.9678 24.9815C37.9678 25.3037 37.9678 25.626 37.9678 25.9483C37.7912 26.5241 37.426 26.943 36.8721 27.2051C32.8372 28.6575 28.7982 30.0969 24.7549 31.5235C24.1057 31.657 23.4612 31.6355 22.8213 31.459C20.4365 30.5781 18.0518 29.6973 15.667 28.8164C14.5713 28.4297 13.4756 28.4297 12.3799 28.8164C10.1594 29.787 7.94649 30.7753 5.74121 31.7813C5.42814 31.872 5.17033 31.7967 4.96777 31.5557C4.96777 31.3623 4.96777 31.169 4.96777 30.9756C7.21641 29.8837 9.49376 28.8418 11.7998 27.8496C13.1398 27.3586 14.4933 27.3156 15.8604 27.7207C18.3261 28.6358 20.7968 29.5381 23.2725 30.4278C23.7232 30.5525 24.1744 30.5525 24.626 30.4278C28.5146 29.0313 32.4033 27.6348 36.292 26.2383C36.8545 26.0047 37.0157 25.6072 36.7754 25.0459C36.6099 24.8343 36.3951 24.7054 36.1309 24.6592C33.8194 25.0355 31.5099 25.4222 29.2021 25.8194C28.8581 25.7761 28.6647 25.5828 28.6221 25.2393C28.6809 24.9119 28.8742 24.7293 29.2021 24.6914C29.8064 24.5979 30.4079 24.4905 31.0068 24.3692C31.3988 23.5803 31.4955 22.7531 31.2969 21.8877C31.193 21.508 31.0211 21.1642 30.7812 20.8565C30.0496 21.9367 29.0292 22.4846 27.7197 22.5C27.3245 22.2005 27.303 21.8782 27.6553 21.5332C29.2809 21.2506 30.1833 20.2946 30.3623 18.6651C30.2228 17.1397 29.4063 16.2051 27.9131 15.8614C27.4294 15.8097 26.9568 15.8635 26.4951 16.0225C26.2967 16.0031 26.1355 15.9172 26.0117 15.7647C25.6883 14.6418 24.9471 14.137 23.7881 14.25C22.9488 14.4859 22.4976 15.0229 22.4346 15.8614C23.7054 16.4017 24.64 17.2933 25.2383 18.5362C25.3024 19.1596 25.0338 19.3852 24.4326 19.2129C24.1505 18.7884 23.8605 18.3694 23.5625 17.9561C22.2017 16.603 20.6226 16.2701 18.8252 16.9571C17.5504 17.5875 16.7555 18.5973 16.4404 19.9864C17.0563 20.1057 17.6579 20.2776 18.2451 20.502C20.9736 21.5118 23.7022 22.5215 26.4307 23.5313C27.422 24.0639 27.8194 24.891 27.623 26.0127C27.2301 27.2137 26.4029 27.7616 25.1416 27.6563C23.2232 26.9871 21.3111 26.2997 19.4053 25.5938C18.8896 25.336 18.8252 24.9922 19.2119 24.5625C19.3534 24.474 19.5038 24.4526 19.6631 24.4981C21.6038 25.2416 23.5589 25.9399 25.5283 26.5928C26.3207 26.4484 26.6537 25.9757 26.5273 25.1748C26.4371 24.9556 26.2974 24.7729 26.1084 24.627C22.9467 23.4156 19.767 22.2554 16.5693 21.1465C15.5435 21.0164 14.5982 21.2313 13.7334 21.791C13.4312 22.0078 13.1304 22.2226 12.8311 22.4356C10.391 22.9107 7.95252 23.3941 5.51562 23.8858C5.26563 23.879 5.08301 23.7716 4.96777 23.5635C4.96777 23.3916 4.96777 23.2198 4.96777 23.0479C5.10027 22.8836 5.27215 22.7869 5.4834 22.7578C7.78206 22.3067 10.0809 21.8556 12.3799 21.4043C13.2218 20.6935 14.1886 20.2423 15.2803 20.0508C15.8123 17.4992 17.3592 15.9953 19.9209 15.5391C20.3423 15.4891 20.7612 15.4998 21.1777 15.5713C21.8241 13.5989 23.1669 12.8361 25.2061 13.2832C25.674 13.4509 26.0715 13.7194 26.3984 14.0889C26.5513 14.3535 26.7339 14.5898 26.9463 14.7979C28.7019 14.5981 30.0447 15.2427 30.9746 16.7315C31.4529 17.6974 31.5818 18.7072 31.3613 19.7608C31.8998 20.3221 32.2328 20.9881 32.3604 21.7588C33.4598 21.6151 34.2225 22.0449 34.6484 23.0479C34.6948 23.2828 34.727 23.5192 34.7451 23.7569C35.207 23.696 35.6689 23.6316 36.1309 23.5635C37.0695 23.6283 37.6818 24.101 37.9678 24.9815ZM32.4893 22.8545C33.1365 22.7291 33.5232 22.9869 33.6494 23.628C33.6112 23.7493 33.5682 23.8674 33.5205 23.9824C33.1154 24.0751 32.7072 24.1181 32.2959 24.1114C32.447 23.7078 32.5114 23.2889 32.4893 22.8545Z" fill="#263D42"/>
</g>
<defs>
<clipPath id="clip0_218_2231">
<rect width="33" height="33" fill="white" transform="translate(5 6)"/>
</clipPath>
</defs>
</svg>
