<svg width="44" height="44" viewBox="0 0 44 44" fill="none" xmlns="http://www.w3.org/2000/svg">
<rect width="44" height="44" rx="10" fill="#7B9E89"/>
<g clip-path="url(#clip0_218_2229)">
<path opacity="0.928" fill-rule="evenodd" clip-rule="evenodd" d="M18.0519 5.96777C19.0187 5.96777 19.9855 5.96777 20.9523 5.96777C24.6281 6.30724 27.7326 7.81115 30.2658 10.4795C32.5946 13.3069 33.4969 16.5296 32.9728 20.1475C32.8919 20.1933 32.8168 20.247 32.7472 20.3086C32.0982 20.4614 31.4966 20.7192 30.9425 21.082C31.3467 21.5204 31.8194 21.8642 32.3605 22.1133C32.6017 22.4044 32.6769 22.7374 32.5861 23.1123C32.4718 23.5411 32.3321 23.9601 32.1671 24.3691C33.6511 24.265 35.0906 24.4799 36.4855 25.0137C36.6771 25.1274 36.8168 25.2886 36.9045 25.4971C37.5438 29.1006 36.5018 32.1191 33.7785 34.5527C33.4724 34.7948 33.1501 35.0096 32.8117 35.1973C32.2401 35.2049 32.0574 34.9364 32.2638 34.3916C35.1709 32.2935 36.4062 29.4575 35.9699 25.8838C32.1313 24.7538 28.9409 25.7206 26.3986 28.7842C25.1583 30.5225 24.6427 32.4561 24.8517 34.585C26.3382 33.0984 27.8635 31.6589 29.4279 30.2666C29.5508 29.8805 29.6045 29.483 29.589 29.0742C29.561 28.588 29.5288 28.1047 29.4923 27.624C29.8385 27.1781 30.1607 27.1997 30.4591 27.6885C30.5833 28.196 30.6477 28.7117 30.6525 29.2354C31.1603 28.7919 31.6866 28.373 32.2316 27.9785C32.758 27.9033 32.9836 28.1289 32.9084 28.6553C32.836 28.7922 32.7394 28.9103 32.6183 29.0098C31.5494 29.8206 30.5182 30.6799 29.5246 31.5879C30.2524 31.6171 30.9614 31.746 31.6515 31.9746C31.9953 32.2754 31.9953 32.5762 31.6515 32.877C31.5548 32.8877 31.4582 32.8984 31.3615 32.9092C30.3757 32.6721 29.3766 32.5969 28.3644 32.6836C27.3899 33.5183 26.4661 34.41 25.5929 35.3584C27.1901 35.8071 28.78 35.7749 30.3625 35.2617C30.9962 35.122 31.2433 35.3692 31.1037 36.0029C30.8069 36.2168 30.4739 36.3565 30.1046 36.4219C28.2983 36.8613 26.5151 36.786 24.755 36.1963C23.8874 37.0848 23.071 38.0086 22.3058 38.9678C22.1339 38.9678 21.9621 38.9678 21.7902 38.9678C21.4936 38.698 21.4614 38.3972 21.6935 38.0654C22.3999 37.2085 23.1304 36.3706 23.8849 35.5518C23.8323 35.1267 23.8 34.697 23.7882 34.2627C19.4727 35.911 15.5733 35.2236 12.09 32.2002C12.0039 32.0385 11.9501 31.8666 11.9289 31.6846C12.1036 31.1605 12.211 30.6234 12.2511 30.0732C11.7133 30.1244 11.187 30.2319 10.672 30.3955C10.2776 30.3486 9.97682 30.1553 9.76968 29.8154C8.16005 27.7132 7.03212 25.3713 6.3859 22.79C6.3727 22.5777 6.4264 22.3843 6.54703 22.21C7.10368 21.9046 7.60856 21.5287 8.06168 21.082C7.50762 20.7192 6.90606 20.4614 6.25699 20.3086C5.99256 20.1344 5.85291 19.8874 5.83804 19.5674C5.59269 15.7689 6.78507 12.514 9.41519 9.80273C9.86393 9.63727 10.1432 9.78767 10.2531 10.2539C9.97091 10.7085 9.6379 11.1275 9.25406 11.5107C7.50247 13.8526 6.6968 16.4952 6.83707 19.4385C7.76109 19.594 8.52379 20.0237 9.12515 20.7275C9.2081 21.0832 9.14365 21.4055 8.93179 21.6943C8.49129 22.1773 7.9864 22.5747 7.41715 22.8867C8.09881 25.1847 9.16228 27.2795 10.6076 29.1709C10.6552 29.2401 10.7196 29.2831 10.8009 29.2998C13.0765 28.5519 13.8177 29.3146 13.0246 31.5879C16.2694 34.3235 19.8358 34.8285 23.7238 33.1025C24.1286 29.4024 25.9978 26.7491 29.3312 25.1426C29.8951 24.9439 30.4537 24.7399 31.007 24.5303C31.2199 23.988 31.4133 23.4401 31.5871 22.8867C30.8511 22.5374 30.2818 22.0111 29.8791 21.3076C29.8315 21.0652 29.853 20.8289 29.9435 20.5986C30.563 19.9827 31.3042 19.596 32.1671 19.4385C32.3056 14.1585 30.0067 10.388 25.2707 8.12695C21.4246 6.53731 17.579 6.53731 13.7336 8.12695C13.0043 8.44837 12.3168 8.83509 11.6711 9.28711C11.1126 9.35154 10.887 9.10446 10.9943 8.5459C12.3228 7.56493 13.7945 6.86669 15.4093 6.45117C16.2892 6.23306 17.1701 6.07193 18.0519 5.96777ZM12.6378 15.249C13.4891 15.1969 14.2088 15.4762 14.797 16.0869C15.226 16.6198 15.3119 17.1999 15.0548 17.8271C14.7853 18.1716 14.4308 18.3757 13.9914 18.4395C13.1423 18.5955 12.3044 18.5525 11.4777 18.3105C10.7705 18.0025 10.5234 17.4761 10.7365 16.7314C11.1014 15.8888 11.7352 15.3946 12.6378 15.249ZM25.7863 15.249C26.7327 15.2015 27.4953 15.5452 28.0744 16.2803C28.6699 17.4346 28.3368 18.1542 27.0753 18.4395C26.1753 18.6065 25.2945 18.542 24.4328 18.2461C23.9262 17.9742 23.7221 17.5552 23.8205 16.9893C23.931 16.4281 24.221 15.9877 24.6906 15.668C25.0375 15.456 25.4027 15.3164 25.7863 15.249ZM19.0187 21.1787C19.9537 21.0572 20.7593 21.315 21.4357 21.9521C21.5812 22.1415 21.6564 22.3563 21.6613 22.5967C20.9522 22.5376 20.2433 22.4731 19.5343 22.4033C18.8034 22.4678 18.0729 22.5323 17.3429 22.5967C17.3884 22.2158 17.5603 21.9043 17.8586 21.6621C18.2282 21.4446 18.6149 21.2834 19.0187 21.1787ZM19.0187 26.2061C19.8279 26.1874 20.6229 26.284 21.4035 26.4961C22.6762 26.9478 22.6869 27.4098 21.4357 27.8818C20.0395 28.3281 18.6537 28.2959 17.2785 27.7852C17.0904 27.675 16.9077 27.5569 16.7306 27.4307C16.583 27.2157 16.6152 27.0331 16.8273 26.8828C17.5139 26.4966 18.2444 26.271 19.0187 26.2061Z" fill="#263D42"/>
<path opacity="0.926" fill-rule="evenodd" clip-rule="evenodd" d="M12.5735 14.2178C14.0586 14.1277 15.1866 14.7078 15.9573 15.9581C16.5086 17.1426 16.3045 18.1632 15.345 19.0196C13.8912 19.6705 12.4088 19.7349 10.8977 19.2129C9.76479 18.5655 9.38881 17.6095 9.76978 16.3448C10.2957 15.0988 11.2302 14.3898 12.5735 14.2178ZM12.6379 15.2491C11.7353 15.3947 11.1015 15.8888 10.7366 16.7315C10.5235 17.4761 10.7706 18.0025 11.4778 18.3106C12.3045 18.5526 13.1424 18.5955 13.9915 18.4395C14.4309 18.3758 14.7854 18.1716 15.0549 17.8272C15.312 17.1999 15.2261 16.6199 14.7971 16.087C14.2089 15.4762 13.4892 15.1969 12.6379 15.2491Z" fill="#263D42"/>
<path opacity="0.926" fill-rule="evenodd" clip-rule="evenodd" d="M25.657 14.2178C27.0618 14.1226 28.1682 14.6382 28.9763 15.7647C29.5266 16.6946 29.5266 17.6184 28.9763 18.5362C28.5093 19.0759 27.9185 19.3874 27.2039 19.4707C26.128 19.6527 25.0753 19.5668 24.0457 19.2129C22.8728 18.5527 22.4968 17.5752 22.9177 16.2803C23.4546 15.0876 24.3677 14.4001 25.657 14.2178ZM25.7859 15.249C25.4023 15.3164 25.0371 15.4561 24.6902 15.668C24.2207 15.9877 23.9306 16.4281 23.8201 16.9893C23.7217 17.5552 23.9259 17.9742 24.4324 18.2461C25.2941 18.542 26.1749 18.6065 27.075 18.4395C28.3364 18.1543 28.6695 17.4346 28.074 16.2803C27.4949 15.5452 26.7323 15.2015 25.7859 15.249Z" fill="#263D42"/>
<path opacity="0.93" fill-rule="evenodd" clip-rule="evenodd" d="M18.9541 20.1474C19.98 20.0496 20.9253 20.2752 21.79 20.8242C22.5839 21.4437 22.831 22.2279 22.5312 23.1767C22.2612 23.5211 21.9067 23.6715 21.4678 23.6279C20.8128 23.561 20.1575 23.4966 19.502 23.4345C18.8464 23.4966 18.1911 23.561 17.5361 23.6279C16.7667 23.6426 16.3585 23.2666 16.3115 22.5C16.4348 21.4952 16.9718 20.8077 17.9229 20.4375C18.2692 20.3189 18.613 20.2222 18.9541 20.1474ZM19.0186 21.1787C18.6148 21.2834 18.228 21.4445 17.8584 21.6621C17.5601 21.9042 17.3882 22.2157 17.3428 22.5966C18.0728 22.5322 18.8032 22.4678 19.5342 22.4033C20.2431 22.4731 20.9521 22.5375 21.6611 22.5966C21.6562 22.3563 21.581 22.1415 21.4355 21.9521C20.7592 21.3149 19.9535 21.0571 19.0186 21.1787Z" fill="#263D42"/>
<path opacity="0.929" fill-rule="evenodd" clip-rule="evenodd" d="M18.9542 25.1748C20.2477 25.0961 21.4723 25.3432 22.6281 25.916C23.3999 26.3958 23.604 27.0511 23.2404 27.8818C22.9411 28.2664 22.5652 28.5565 22.1124 28.7519C20.2158 29.4389 18.3467 29.3745 16.505 28.5586C15.565 28.0163 15.3609 27.2751 15.8927 26.3349C16.2665 25.962 16.7069 25.6934 17.214 25.5293C17.7938 25.3639 18.3739 25.2457 18.9542 25.1748ZM19.0187 26.206C18.2444 26.271 17.5139 26.4966 16.8273 26.8828C16.6152 27.0331 16.5829 27.2157 16.7306 27.4306C16.9077 27.5568 17.0904 27.675 17.2785 27.7851C18.6537 28.2958 20.0394 28.3281 21.4357 27.8818C22.6869 27.4097 22.6762 26.9478 21.4035 26.4961C20.6229 26.284 19.8279 26.1873 19.0187 26.206Z" fill="#263D42"/>
</g>
<defs>
<clipPath id="clip0_218_2229">
<rect width="33" height="33" fill="white" transform="translate(5 6)"/>
</clipPath>
</defs>
</svg>
