<svg width="44" height="44" viewBox="0 0 44 44" fill="none" xmlns="http://www.w3.org/2000/svg">
<rect width="44" height="44" rx="10" fill="#7B9E89"/>
<path d="M8.38379 7.33413C7.93906 7.56616 7.71348 7.95288 7.70703 8.46206V8.77143H7.07539C6.34707 8.77143 6.22461 8.83589 6.22461 9.2355C6.22461 9.60288 6.35996 9.67378 7.08184 9.67378H7.70703V9.99604V10.3183H7.07539C6.34707 10.3183 6.22461 10.3828 6.22461 10.7824C6.22461 11.1498 6.35996 11.2207 7.08184 11.2207H7.70703V11.5429V11.8652H7.07539C6.34707 11.8652 6.22461 11.9296 6.22461 12.3292C6.22461 12.6966 6.35996 12.7675 7.08184 12.7675H7.70703V13.0898V13.4121H7.07539C6.34707 13.4121 6.22461 13.4765 6.22461 13.8761C6.22461 14.2435 6.35996 14.3144 7.08184 14.3144H7.70703V18.3363C7.70703 21.2044 7.6877 22.3775 7.63613 22.4097C7.50078 22.4935 7.32031 22.9833 7.32031 23.2798C7.32031 23.5763 7.31387 23.5828 7.08828 23.6214C6.7918 23.6794 6.37285 24.0597 6.28906 24.3626C6.2375 24.5173 6.22461 26.3929 6.2375 30.2021L6.25684 35.8095L6.46953 36.2478C6.74668 36.8021 7.19785 37.2533 7.7457 37.524C8.12598 37.7109 8.25488 37.7431 8.80918 37.7625C9.49238 37.7947 9.88555 37.7044 10.3883 37.408C10.6848 37.2404 11.2133 36.7054 11.3229 36.4669C11.3937 36.3123 11.3937 36.3187 11.7225 36.6667C12.1543 37.1244 12.6055 37.408 13.2049 37.6142L13.6947 37.7753H23.7365C34.816 37.7753 34.1264 37.8011 34.932 37.3693C36.0084 36.7957 36.7689 35.5904 36.7754 34.4496C36.7754 34.0886 36.7496 33.9726 36.6594 33.8888C36.5562 33.7921 36.2018 33.7792 33.3014 33.7664L30.0594 33.747L30.5943 33.3796C33.8557 31.156 35.8602 27.1083 35.6539 23.1638C35.4992 20.199 34.3777 17.5435 32.399 15.4617C29.2086 12.1037 24.4133 10.9113 19.9918 12.3873C17.3943 13.2509 15.132 15.0363 13.6883 17.3566C12.4379 19.3675 11.8191 21.7201 11.9158 24.1113C12.0641 27.8496 13.8816 31.1947 16.9561 33.3732L17.5232 33.7792H14.61H11.7031V29.1193V24.4658L11.5549 24.208C11.4002 23.9308 11.0586 23.673 10.7879 23.615C10.6268 23.5828 10.6074 23.5505 10.6074 23.3378C10.6074 23.0478 10.4979 22.7126 10.3367 22.5064C10.2271 22.3646 10.2207 22.139 10.2207 18.3363V14.3144H10.8523C11.5807 14.3144 11.7031 14.25 11.7031 13.8503C11.7031 13.483 11.5678 13.4121 10.8459 13.4121H10.2207V13.0898V12.7675H10.8523C11.5807 12.7675 11.7031 12.7031 11.7031 12.3035C11.7031 11.9361 11.5678 11.8652 10.8459 11.8652H10.2207V11.5429V11.2207H10.8523C11.5807 11.2207 11.7031 11.1562 11.7031 10.7566C11.7031 10.3892 11.5678 10.3183 10.8459 10.3183H10.2207V9.99604V9.67378H10.8523C11.5807 9.67378 11.7031 9.60933 11.7031 9.20971C11.7031 8.84233 11.5678 8.77143 10.8523 8.77143H10.24L10.2014 8.38472C10.1369 7.65639 9.67285 7.22456 8.95742 7.22456C8.73828 7.231 8.49336 7.27612 8.38379 7.33413ZM25.7023 12.9029C30.0078 13.6699 33.4367 16.9634 34.4293 21.2753C35.0223 23.8728 34.5969 26.7152 33.2563 29.0355C32.7406 29.9314 32.2572 30.5566 31.4902 31.33C30.6008 32.2195 29.808 32.7931 28.6994 33.3603L27.8744 33.7792H23.8139H19.7469L19.2893 33.5794C17.4266 32.7673 15.667 31.2269 14.5262 29.4158C13.3596 27.5595 12.7859 25.4068 12.8826 23.2025C13.0953 18.2138 16.6531 14.0115 21.5451 12.9609C22.8729 12.6773 24.3359 12.658 25.7023 12.9029ZM9.25391 18.1816V22.0488H8.96387H8.67383V18.1816V14.3144H8.96387H9.25391V18.1816ZM9.44727 23.0349C9.56973 23.0929 9.61484 23.1767 9.62773 23.3572L9.64707 23.5957H8.96387H8.28066L8.3 23.3572C8.32578 23.0607 8.4998 22.9511 8.96387 22.9511C9.14434 22.9511 9.35703 22.9898 9.44727 23.0349ZM10.5945 24.6011L10.7363 24.6978V30.0345V35.3712L10.5365 35.7644C10.2143 36.4089 9.67285 36.7505 8.96387 36.757C8.25488 36.7634 7.66191 36.3832 7.33965 35.7257L7.15918 35.3583L7.13984 30.2021C7.12695 27.3662 7.13984 24.9492 7.15918 24.8332C7.18496 24.6978 7.24941 24.6011 7.33965 24.5625C7.41699 24.5302 8.15176 24.5044 8.96387 24.5044C10.2078 24.498 10.4721 24.5173 10.5945 24.6011ZM35.7184 34.9716C35.4219 35.9384 34.5582 36.6603 33.5205 36.8085C32.9533 36.8859 14.6873 36.8923 14.075 36.815C12.9922 36.6732 12.0512 35.8675 11.7998 34.8556L11.7547 34.6816H23.7752H35.8021L35.7184 34.9716Z" fill="#07393C"/>
<path d="M22.7568 14.1211C21.5709 14.2564 20.4688 14.5916 19.3666 15.1588C16.7756 16.4994 14.958 18.9357 14.365 21.8877C14.191 22.7578 14.2104 24.6269 14.3973 25.5035C14.8098 27.4307 15.6412 28.9969 16.9561 30.3375C18.8768 32.2904 21.442 33.3023 24.1748 33.1799C25.6057 33.1154 26.7852 32.8125 28.042 32.1937C29.344 31.5492 30.5621 30.5309 31.4645 29.3385C31.9801 28.6553 32.7213 27.1793 32.9404 26.3994C33.643 23.9373 33.4238 21.5139 32.2895 19.258C31.4387 17.5758 29.808 15.958 28.0549 15.075C27.3846 14.7398 26.1922 14.3467 25.4639 14.2242C24.7291 14.0953 23.4272 14.0502 22.7568 14.1211ZM25.4316 15.2168C30.1367 16.1771 33.1402 20.676 32.1928 25.3488C31.8576 27.0053 31.0777 28.4555 29.8467 29.6865C28.2934 31.2463 26.3275 32.1164 24.1426 32.2131C18.7801 32.4516 14.494 27.6885 15.2867 22.384C15.8604 18.491 19.025 15.4939 23.0147 15.0621C23.5238 15.0105 24.8065 15.0879 25.4316 15.2168Z" fill="#07393C"/>
<path d="M17.7488 18.3557C17.3363 18.8004 16.9238 19.4385 16.9238 19.6318C16.9238 19.8445 17.1881 20.1152 17.3943 20.1152C17.4846 20.1152 17.6135 20.0637 17.6844 19.9992C17.9357 19.7865 18.7285 18.6715 18.7285 18.5297C18.7285 18.2912 18.49 18.0527 18.2516 18.0527C18.0775 18.0527 17.9809 18.1107 17.7488 18.3557Z" fill="#07393C"/>
<path d="M23.4144 23.3249C18.8253 27.914 18.9865 27.7271 19.341 28.0751C19.689 28.4296 19.5021 28.5907 24.104 23.9888C28.0099 20.0829 28.3515 19.722 28.3451 19.5351C28.3386 19.2515 28.171 19.0839 27.8874 19.0839C27.6619 19.0839 27.4556 19.2837 23.4144 23.3249Z" fill="#07393C"/>
<path d="M22.3572 22.1906C20.7265 23.8342 19.3665 25.2393 19.3407 25.3166C19.257 25.6066 19.5341 25.9096 19.8886 25.916C19.9402 25.916 21.3388 24.5625 22.9952 22.9061C25.8634 20.0443 26.0116 19.8768 26.0116 19.6576C26.0116 19.3676 25.8505 19.2129 25.554 19.2129C25.3478 19.2129 25.1286 19.4191 22.3572 22.1906Z" fill="#07393C"/>
<path d="M24.5098 24.4207C21.2485 27.6885 21.313 27.6047 21.661 27.9463C22.0026 28.2943 21.9188 28.3588 25.1866 25.0975C28.0548 22.2358 28.203 22.0682 28.203 21.849C28.203 21.559 28.0419 21.4043 27.7454 21.4043C27.5391 21.4043 27.32 21.6106 24.5098 24.4207Z" fill="#07393C"/>
</svg>
