<svg width="44" height="44" viewBox="0 0 44 44" fill="none" xmlns="http://www.w3.org/2000/svg">
<rect width="44" height="44" rx="10" fill="#7B9E89"/>
<g clip-path="url(#clip0_218_1414)">
<path d="M21.023 10.4215L20.8555 10.5955V12.832V15.0686L21.023 15.2426C21.1584 15.3779 21.2551 15.4102 21.5 15.4102C21.7449 15.4102 21.8416 15.3779 21.977 15.2426L22.1445 15.0686V12.832V10.5955L21.977 10.4215C21.8416 10.2861 21.7449 10.2539 21.5 10.2539C21.2551 10.2539 21.1584 10.2861 21.023 10.4215Z" fill="#07393C"/>
<path d="M13.3209 12.484C13.1533 12.6258 13.1211 12.6967 13.1211 12.9351C13.1211 13.1865 13.2178 13.3992 13.8688 14.5271C15.2416 16.9119 15.2223 16.8797 15.5059 16.957C15.9699 17.0795 16.3438 16.8152 16.3438 16.3511C16.3438 16.0998 16.2277 15.8549 15.3705 14.366C14.8355 13.4314 14.3135 12.5935 14.2104 12.4904C13.959 12.2519 13.598 12.2519 13.3209 12.484Z" fill="#07393C"/>
<path d="M28.7896 12.4904C28.6865 12.5935 28.1645 13.4314 27.6295 14.366C26.7787 15.8549 26.6562 16.0998 26.6562 16.3511C26.6562 16.8152 27.0301 17.0795 27.4941 16.957C27.7777 16.8797 27.7648 16.899 29.1313 14.5271C29.7822 13.3992 29.8789 13.1929 29.8789 12.9416C29.8789 12.6967 29.8467 12.6258 29.6791 12.484C29.402 12.2519 29.041 12.2519 28.7896 12.4904Z" fill="#07393C"/>
<path d="M19.8887 18.0269C15.2674 18.5683 10.9619 20.6308 6.75957 24.3176C6.41152 24.6269 5.87012 25.1361 5.56074 25.4584C5 26.0385 5 26.0385 5 26.3801V26.7217L5.88945 27.5918C8.78984 30.4277 12.2252 32.5869 15.7637 33.7922C16.666 34.1015 18.0582 34.4431 19.0508 34.5978C20.1014 34.7654 22.8922 34.7654 23.9492 34.5978C26.1277 34.2627 28.158 33.5859 30.3301 32.4838C32.76 31.2527 35.0932 29.564 37.1105 27.5918L38 26.7217V26.3736V26.0256L37.2137 25.2392C35.0287 23.0801 32.5795 21.3398 29.8596 20.0185C28.4416 19.3289 27.2428 18.8842 25.857 18.5361C24.1941 18.1172 23.5238 18.0334 21.6934 18.0205C20.8232 18.0076 20.0111 18.014 19.8887 18.0269ZM22.6086 19.4127C24.3682 19.6576 26.1664 20.7855 27.2557 22.326C28.5318 24.1177 28.8799 26.5283 28.1709 28.6166C27.3523 31.0207 25.2834 32.8125 22.7633 33.2959C22.093 33.4248 20.907 33.4248 20.2367 33.2959C17.3492 32.748 15.1191 30.5115 14.5713 27.6369C14.4617 27.0504 14.4424 25.8193 14.5391 25.2199C14.9 23.0156 16.3953 21.0304 18.4385 20.0443C19.792 19.3933 21.0811 19.1935 22.6086 19.4127ZM15.0805 20.9338C14.3715 21.7652 13.8945 22.6224 13.54 23.6795C13.2371 24.5947 13.1211 25.323 13.1211 26.3672C13.1211 27.4113 13.2371 28.1396 13.54 29.0549C13.8945 30.1119 14.3715 30.9691 15.0805 31.8006C15.435 32.2195 15.435 32.226 15.2287 32.1551C14.7453 31.9875 13.2178 31.2592 12.4057 30.8015C11.0393 30.0281 9.49238 28.9453 8.32578 27.9592C7.57812 27.3211 6.61133 26.4187 6.61133 26.3607C6.61133 26.2898 8.11953 24.9363 8.86074 24.3433C10.3625 23.1445 11.9803 22.1068 13.5336 21.3398C14.2555 20.9853 15.3254 20.5148 15.4285 20.5019C15.435 20.5019 15.2803 20.6953 15.0805 20.9338ZM28.3771 20.8306C30.285 21.6427 32.2895 22.8674 34.1393 24.3433C34.8805 24.9363 36.3887 26.2898 36.3887 26.3607C36.3887 26.3929 36.1051 26.6765 35.7635 26.9924C33.3529 29.1902 31.0068 30.7564 28.4416 31.8715C27.9904 32.0713 27.6037 32.2324 27.5844 32.2324C27.5715 32.2324 27.7197 32.039 27.9195 31.8006C28.6285 30.9691 29.1055 30.1119 29.46 29.0549C29.7629 28.1396 29.8789 27.4113 29.8789 26.3672C29.8789 25.323 29.7629 24.5947 29.46 23.6795C29.1055 22.6224 28.6285 21.7652 27.9195 20.9338C27.7197 20.6953 27.565 20.5019 27.5844 20.5019C27.5973 20.5019 27.9582 20.6502 28.3771 20.8306Z" fill="#07393C"/>
<path d="M20.5203 23.267C19.141 23.7117 18.2773 24.9041 18.2773 26.3672C18.2773 28.217 19.6502 29.5898 21.5 29.5898C23.3498 29.5898 24.7227 28.217 24.7227 26.3672C24.7227 24.9041 23.8461 23.6924 22.4732 23.2734C21.9383 23.1059 21.0359 23.1059 20.5203 23.267Z" fill="#07393C"/>
</g>
<defs>
<clipPath id="clip0_218_1414">
<rect width="33" height="33" fill="white" transform="translate(5 6)"/>
</clipPath>
</defs>
</svg>
