<svg width="44" height="44" viewBox="0 0 44 44" fill="none" xmlns="http://www.w3.org/2000/svg">
<rect width="44" height="44" rx="10" fill="#7B9E89"/>
<path d="M20.008 5.45312C17.1877 5.76562 14.1096 7.03906 11.7268 8.86719C10.9221 9.48438 9.43772 10.9766 9.38303 11.2188C9.32834 11.4688 9.50022 11.875 9.69553 11.9531C9.76584 11.9766 11.2112 12 12.9065 12H15.9846V13.4219V14.8516L15.5315 15.1016C14.3908 15.7266 12.7815 17.1719 11.9143 18.3281C10.5862 20.1094 9.75022 22.1172 9.45334 24.2422C9.28928 25.4453 9.34397 27.3984 9.57834 28.5C10.6487 33.5469 14.4221 37.3125 19.5237 38.4219C20.2112 38.5703 20.5549 38.5938 22.0002 38.5938C23.4533 38.5938 23.7893 38.5703 24.5002 38.4219C29.6487 37.3047 33.508 33.375 34.469 28.25C34.6877 27.0938 34.6721 24.7422 34.4377 23.5859C33.7268 20.0781 31.6096 17.0312 28.594 15.1875L27.9377 14.7891L27.9533 13.4141L27.9768 12.0391L31.094 12.0156C33.9299 12 34.2268 11.9844 34.3674 11.8594C34.6096 11.6484 34.6721 11.3984 34.5471 11.1172C34.4221 10.8047 32.9533 9.39062 32.1096 8.75C29.6877 6.92969 26.7815 5.76562 23.8596 5.44531C22.969 5.34375 20.9065 5.35156 20.008 5.45312ZM23.969 6.80469C26.8362 7.17969 29.5549 8.35938 31.7658 10.1797L32.3205 10.6328L27.1643 10.6562C24.3205 10.6641 19.6799 10.6641 16.8518 10.6562L11.6955 10.6328L12.2268 10.1875C14.3518 8.39844 17.258 7.14844 20.1721 6.77344C21.0471 6.66406 23.0158 6.67969 23.969 6.80469ZM26.6096 13.1016C26.6096 14.1172 26.6018 14.2031 26.4768 14.1484C23.9612 13.1641 20.7815 13.0703 18.2268 13.9062C17.9143 14.0078 17.6018 14.1172 17.5315 14.1484C17.3987 14.2031 17.3908 14.125 17.3908 13.1016V12H22.0002H26.6096V13.1016ZM24.2815 14.8906C28.719 15.8281 32.1018 19.2109 33.1096 23.7266C33.3596 24.8672 33.3674 27.1328 33.1174 28.25C32.2893 31.9688 29.8205 34.9922 26.4533 36.4062C24.9612 37.0391 23.6018 37.3125 21.9768 37.3125C20.3596 37.3047 18.969 37.0234 17.5002 36.3828C14.1174 34.9219 11.7112 31.9609 10.8908 28.2656C10.633 27.125 10.6408 24.8672 10.8908 23.7266C11.9768 18.875 15.7112 15.4141 20.594 14.7344C21.4065 14.625 23.4143 14.7031 24.2815 14.8906Z" fill="#07393C"/>
<path d="M21.0469 16.6875C16.9141 17.1484 13.7031 20.0859 12.8125 24.2265C12.6172 25.1562 12.6328 26.8906 12.8438 27.8828C13.2266 29.6562 14.1328 31.3281 15.3828 32.5703C19.461 36.6406 26.0469 36.1562 29.4922 31.5312C30.6719 29.9453 31.3047 28.0547 31.3125 26.0781C31.3125 24.9531 31.1953 24.1406 30.8906 23.1719C30 20.3594 27.7422 18.0625 24.9453 17.1328C23.7735 16.7344 22.211 16.5625 21.0469 16.6875ZM21.2969 21.8203V25.6328L18.0313 27.5156L14.7735 29.4062L14.5938 29.0078C14.1172 27.9609 13.8906 26.4765 14.0313 25.2344C14.2344 23.3437 14.9297 21.8281 16.2266 20.4844C17.1563 19.5078 18.2422 18.8047 19.4219 18.414C19.9688 18.2344 20.836 18.0312 21.125 18.0234L21.2969 18.0156V21.8203ZM24.0703 18.2578C24.7891 18.4453 25.7735 18.8828 26.4297 19.3203C27.0235 19.7109 27.9453 20.5859 28.4141 21.2031C30.0625 23.3828 30.4688 26.3828 29.4531 28.9219L29.2578 29.4062L27.836 28.5859C27.0547 28.1328 25.5781 27.289 24.5625 26.7031L22.7031 25.6328V21.8125V18L23.0781 18.0547C23.2813 18.0781 23.7266 18.1719 24.0703 18.2578ZM25.3125 28.6797C27.1016 29.7109 28.5547 30.5781 28.5469 30.6094C28.4688 30.8125 27.5625 31.7812 27.0938 32.164C26.0313 33.0234 24.9297 33.5547 23.6094 33.8515C22.8672 34.0156 21.1328 34.0156 20.3985 33.8515C18.5938 33.4453 17.0547 32.5234 15.8906 31.1562C15.6406 30.8672 15.4375 30.6172 15.4375 30.5937C15.4375 30.539 21.9453 26.7734 22.0156 26.789C22.0469 26.7969 23.5313 27.6484 25.3125 28.6797Z" fill="#07393C"/>
</svg>
