<svg width="44" height="44" viewBox="0 0 44 44" fill="none" xmlns="http://www.w3.org/2000/svg">
<rect width="44" height="44" rx="10" fill="#7B9E89"/>
<path opacity="0.955" fill-rule="evenodd" clip-rule="evenodd" d="M13.4756 6.4834C18.8037 6.47266 24.1319 6.4834 29.46 6.51562C29.5781 6.54785 29.6533 6.62305 29.6856 6.74121C29.7286 8.09473 29.7286 9.44824 29.6856 10.8018C29.0912 17.4895 28.4467 24.1712 27.752 30.8467C27.5555 31.4293 27.2118 31.902 26.7207 32.2646C26.6993 33.4893 26.6777 34.7139 26.6563 35.9385C26.6091 37.3175 25.9109 38.1446 24.5615 38.4199C22.499 38.4629 20.4365 38.4629 18.374 38.4199C17.0247 38.1446 16.3265 37.3175 16.2793 35.9385C16.2579 34.7139 16.2363 33.4893 16.2149 32.2646C15.3557 31.5769 14.9475 30.6745 14.9903 29.5576C14.3926 23.0905 13.791 16.6237 13.1856 10.1572C13.1426 9.08301 13.1426 8.00879 13.1856 6.93457C13.2197 6.73573 13.3164 6.58534 13.4756 6.4834ZM14.249 7.51465C19.04 7.51465 23.8311 7.51465 28.6221 7.51465C28.6221 8.18066 28.6221 8.84668 28.6221 9.5127C23.8311 9.5127 19.04 9.5127 14.249 9.5127C14.249 8.84668 14.249 8.18066 14.249 7.51465ZM14.3135 10.6084C19.0832 10.5869 23.8527 10.6084 28.6221 10.6729C27.9886 17.1575 27.3763 23.6458 26.7852 30.1377C26.579 31.0959 25.9881 31.6222 25.0127 31.7168C22.6494 31.7598 20.2862 31.7598 17.9229 31.7168C16.9474 31.6222 16.3566 31.0959 16.1504 30.1377C15.5476 23.6253 14.9353 17.1155 14.3135 10.6084ZM21.4033 17.3115C22.9276 17.5023 23.6043 18.3617 23.4336 19.8896C23.0056 21.0439 22.1785 21.5273 20.9522 21.3398C19.7979 20.9119 19.3145 20.0847 19.502 18.8584C19.8129 17.9361 20.4467 17.4205 21.4033 17.3115ZM17.3428 32.7803C20.0928 32.7803 22.8428 32.7803 25.5928 32.7803C25.6178 33.9855 25.5856 35.1887 25.4961 36.3896C25.3401 36.8143 25.0501 37.0935 24.626 37.2275C24.6444 36.6016 24.6122 35.9785 24.5293 35.3584C24.3635 34.8274 24.009 34.4944 23.4658 34.3594C22.1338 34.3164 20.8018 34.3164 19.4697 34.3594C18.9266 34.4944 18.5721 34.8274 18.4063 35.3584C18.3261 35.9788 18.2939 36.6018 18.3096 37.2275C17.8855 37.0935 17.5954 36.8143 17.4395 36.3896C17.35 35.1887 17.3178 33.9855 17.3428 32.7803ZM19.9209 35.3584C21.0417 35.3298 22.1589 35.362 23.2725 35.4551C23.4187 35.5555 23.4938 35.6951 23.4981 35.874C23.5303 36.3892 23.541 36.9048 23.5303 37.4209C22.1553 37.4209 20.7803 37.4209 19.4053 37.4209C19.3804 36.815 19.4126 36.2134 19.502 35.6162C19.6175 35.4791 19.7571 35.3931 19.9209 35.3584Z" fill="#263D42"/>
<path opacity="0.916" fill-rule="evenodd" clip-rule="evenodd" d="M21.21 13.7022C21.3832 13.6916 21.5551 13.7024 21.7256 13.7344C21.8437 13.7666 21.919 13.8418 21.9512 13.96C21.9942 14.4756 21.9942 14.9912 21.9512 15.5069C21.919 15.625 21.8437 15.7002 21.7256 15.7324C21.3017 15.8697 21.0331 15.7301 20.9199 15.3135C20.8769 14.9268 20.8769 14.5401 20.9199 14.1533C20.9541 13.9545 21.0508 13.8041 21.21 13.7022Z" fill="#263D42"/>
<path opacity="0.884" fill-rule="evenodd" clip-rule="evenodd" d="M17.6004 15.1846C17.8034 15.1659 17.9967 15.1982 18.1805 15.2812C18.4491 15.5498 18.7176 15.8183 18.9861 16.0869C19.1903 16.8281 18.9217 17.0967 18.1805 16.8926C17.9119 16.624 17.6434 16.3555 17.3748 16.0869C17.1987 15.7145 17.2739 15.4138 17.6004 15.1846Z" fill="#263D42"/>
<path opacity="0.884" fill-rule="evenodd" clip-rule="evenodd" d="M24.8843 15.1846C25.4745 15.1196 25.7216 15.3774 25.6255 15.9581C25.3591 16.289 25.0691 16.6005 24.7554 16.8926C24.1052 17.1229 23.8151 16.8973 23.8852 16.2159C24.188 15.838 24.5211 15.4942 24.8843 15.1846Z" fill="#263D42"/>
<path opacity="0.931" fill-rule="evenodd" clip-rule="evenodd" d="M20.8236 16.2802C23.044 16.1272 24.3116 17.1477 24.6264 19.3417C24.3435 21.5795 23.0759 22.6107 20.8236 22.4355C18.9918 21.8777 18.1861 20.6424 18.4066 18.7294C18.7514 17.4502 19.5571 16.6337 20.8236 16.2802ZM21.4037 17.3115C20.4471 17.4205 19.8133 17.9361 19.5023 18.8583C19.3148 20.0847 19.7982 20.9118 20.9525 21.3398C22.1789 21.5273 23.006 21.0439 23.434 19.8896C23.6047 18.3616 22.9279 17.5023 21.4037 17.3115Z" fill="#263D42"/>
<path opacity="0.948" fill-rule="evenodd" clip-rule="evenodd" d="M16.0533 18.8584C16.5694 18.8477 17.085 18.8584 17.6002 18.8906C17.8724 19.0836 17.9475 19.3308 17.8258 19.6318C17.7935 19.75 17.7183 19.8252 17.6002 19.8574C17.0846 19.9004 16.5689 19.9004 16.0533 19.8574C15.8589 19.7589 15.773 19.5977 15.7955 19.374C15.7814 19.1442 15.8674 18.9723 16.0533 18.8584Z" fill="#263D42"/>
<path opacity="0.95" fill-rule="evenodd" clip-rule="evenodd" d="M25.3346 18.8584C25.8506 18.8477 26.3663 18.8584 26.8814 18.8906C26.9996 18.9228 27.0748 18.9981 27.107 19.1162C27.15 19.2881 27.15 19.4599 27.107 19.6318C27.0748 19.75 26.9996 19.8252 26.8814 19.8574C26.3658 19.9004 25.8502 19.9004 25.3346 19.8574C25.1402 19.7589 25.0542 19.5977 25.0767 19.374C25.0627 19.1442 25.1487 18.9723 25.3346 18.8584Z" fill="#263D42"/>
<path opacity="0.883" fill-rule="evenodd" clip-rule="evenodd" d="M18.3098 21.7588C18.9001 21.6938 19.1472 21.9516 19.051 22.5323C18.7846 22.8632 18.4946 23.1748 18.1809 23.4669C17.5316 23.6959 17.2416 23.4703 17.3108 22.7901C17.6136 22.4122 17.9466 22.0684 18.3098 21.7588Z" fill="#263D42"/>
<path opacity="0.885" fill-rule="evenodd" clip-rule="evenodd" d="M24.1746 21.7588C24.3776 21.7402 24.5709 21.7724 24.7547 21.8555C25.0233 22.124 25.2918 22.3925 25.5604 22.6611C25.7645 23.4023 25.4959 23.6709 24.7547 23.4668C24.4861 23.1982 24.2176 22.9297 23.949 22.6611C23.7729 22.2887 23.8481 21.988 24.1746 21.7588Z" fill="#263D42"/>
<path opacity="0.916" fill-rule="evenodd" clip-rule="evenodd" d="M21.21 22.9834C21.3832 22.9729 21.5551 22.9836 21.7256 23.0156C21.8437 23.0479 21.919 23.1231 21.9512 23.2412C21.9942 23.7569 21.9942 24.2725 21.9512 24.7881C21.919 24.9063 21.8437 24.9815 21.7256 25.0137C21.3017 25.151 21.0331 25.0114 20.9199 24.5947C20.8769 24.208 20.8769 23.8213 20.9199 23.4346C20.9541 23.2358 21.0508 23.0854 21.21 22.9834Z" fill="#263D42"/>
</svg>
