<svg width="44" height="44" viewBox="0 0 44 44" fill="none" xmlns="http://www.w3.org/2000/svg">
<rect width="44" height="44" rx="10" fill="#7B9E89"/>
<path opacity="0.913" fill-rule="evenodd" clip-rule="evenodd" d="M20.8674 4.9297C24.9453 4.6597 28.2656 6.092 30.8283 9.22658C31.347 9.97751 31.7637 10.7848 32.0783 11.6485C35.276 15.1404 36.4219 19.229 35.5158 23.9141C35.0113 26.6032 33.8004 28.9079 31.883 30.8281C31.8089 30.8659 31.7308 30.8788 31.6486 30.8672C30.1957 34.703 27.5656 37.3983 23.758 38.9531C22.2331 39.4751 20.7487 39.3709 19.3049 38.6406C15.9339 37.0146 13.5642 34.4626 12.1955 30.9844C9.74955 28.5784 8.4084 25.6487 8.17205 22.1953C7.81419 18.112 9.03815 14.5963 11.8439 11.6485C13.1034 8.41013 15.4081 6.31377 18.758 5.35939C19.4651 5.18116 20.1682 5.03794 20.8674 4.9297ZM30.008 9.9297C28.501 9.00747 26.8865 8.31737 25.1642 7.85939C24.4367 7.35838 23.6293 7.11099 22.7424 7.1172C22.0163 7.14367 21.2871 7.15669 20.5549 7.15626C19.9069 7.26803 19.308 7.5024 18.758 7.85939C17.0357 8.31737 15.4212 9.00747 13.9142 9.9297C15.9277 7.29545 18.6099 5.96733 21.9611 5.94533C25.3123 5.96733 27.9945 7.29545 30.008 9.9297ZM20.633 8.13283C23.9411 8.31983 26.988 9.2964 29.7736 11.0625C33.9378 14.3341 35.5134 18.5919 34.5002 23.836C34.1121 25.7844 33.3049 27.5292 32.0783 29.0703C31.9087 27.306 31.8045 25.5352 31.7658 23.7578C31.2395 20.5759 29.5599 18.2191 26.7267 16.6875C24.5524 15.5969 22.2606 14.8677 19.8517 14.5C18.9879 14.1309 18.428 13.4928 18.172 12.586C17.6917 10.3688 18.512 8.88437 20.633 8.13283ZM17.2736 9.38283C17.3558 9.37115 17.4339 9.38417 17.508 9.42189C16.9147 10.6867 16.8496 11.9758 17.3127 13.2891C17.7753 14.4027 18.5695 15.171 19.6955 15.5938C17.5868 16.2632 15.777 17.396 14.2658 18.9922C13.2142 20.2103 12.537 21.6166 12.2345 23.211C12.1328 25.168 12.0026 27.1211 11.8439 29.0703C10.0161 26.6977 9.11769 24.0024 9.14861 20.9844C9.38322 15.3682 12.0916 11.501 17.2736 9.38283ZM21.7267 16.0235C24.0127 16.4159 26.0701 17.3143 27.8986 18.7188C29.3781 19.9649 30.3026 21.5405 30.672 23.4453C30.7944 25.3716 30.9116 27.2987 31.0236 29.2266C30.4739 31.7195 29.25 33.8158 27.3517 35.5156C26.1493 36.5861 24.7951 37.4194 23.2892 38.0156C22.3342 38.3842 21.3838 38.3711 20.4377 37.9766C16.7236 36.424 14.2236 33.7417 12.9377 29.9297C12.9873 27.7662 13.0914 25.6047 13.2502 23.4453C13.7594 21.0589 15.0485 19.223 17.1174 17.9375C18.5682 17.0816 20.1046 16.4435 21.7267 16.0235ZM21.1017 32.586C21.3835 32.7142 21.6699 32.8185 21.9611 32.8985C22.2337 32.8408 22.4942 32.7367 22.7424 32.586C23.006 32.6956 23.2665 32.8127 23.5236 32.9375C23.3577 33.0308 23.1754 33.0828 22.9767 33.0938C22.1403 33.1572 21.307 33.1311 20.4767 33.0156C20.4507 32.9896 20.4246 32.9635 20.3986 32.9375C20.6445 32.8263 20.8789 32.7091 21.1017 32.586ZM20.3986 34.1485C21.4274 34.1603 22.4691 34.1473 23.5236 34.1094C22.4959 34.772 21.4542 34.7849 20.3986 34.1485Z" fill="#07393C"/>
<path opacity="0.898" fill-rule="evenodd" clip-rule="evenodd" d="M19.5389 24.6953C20.1069 24.6591 20.3282 24.9195 20.2029 25.4766C18.6615 26.871 17.0079 27.0142 15.242 25.9063C14.8365 25.6067 14.7844 25.2682 15.0857 24.8907C15.2941 24.8385 15.5024 24.8385 15.7107 24.8907C17.0405 25.9279 18.3166 25.8628 19.5389 24.6953Z" fill="#07393C"/>
<path opacity="0.901" fill-rule="evenodd" clip-rule="evenodd" d="M28.2891 24.6953C28.9344 24.6875 29.1427 24.9739 28.9141 25.5547C27.7301 26.6534 26.3759 26.9268 24.8516 26.375C24.292 26.1922 23.9014 25.8406 23.6797 25.3203C23.7639 24.8832 24.0244 24.74 24.4609 24.8906C25.7991 25.9269 27.0751 25.8618 28.2891 24.6953Z" fill="#07393C"/>
<path opacity="0.918" fill-rule="evenodd" clip-rule="evenodd" d="M20.9455 31.4922C21.317 31.4822 21.6555 31.5864 21.9611 31.8047C22.2665 31.5729 22.605 31.4818 22.9767 31.5312C23.7856 31.864 24.5539 32.2676 25.2814 32.7422C25.0791 34.377 24.1546 35.3276 22.508 35.5937C20.5751 35.8197 19.286 35.0254 18.6408 33.2109C18.5531 32.9409 18.6181 32.7195 18.8361 32.5469C19.5576 32.2162 20.2607 31.8647 20.9455 31.4922ZM21.1017 32.5859C20.8789 32.709 20.6446 32.8262 20.3986 32.9375C20.4246 32.9635 20.4507 32.9896 20.4767 33.0156C21.307 33.1311 22.1403 33.1572 22.9767 33.0937C23.1754 33.0828 23.3578 33.0308 23.5236 32.9375C23.2665 32.8127 23.006 32.6955 22.7424 32.5859C22.4942 32.7366 22.2337 32.8408 21.9611 32.8984C21.6699 32.8184 21.3835 32.7142 21.1017 32.5859ZM20.3986 34.1484C21.4542 34.7849 22.4959 34.7719 23.5236 34.1094C22.4691 34.1472 21.4274 34.1603 20.3986 34.1484Z" fill="#07393C"/>
</svg>
