<svg width="44" height="44" viewBox="0 0 44 44" fill="none" xmlns="http://www.w3.org/2000/svg">
<rect width="44" height="44" rx="10" fill="#7B9E89"/>
<path d="M20.8515 7.05858C18.9238 7.27538 17.3594 8.0078 16.4336 9.12694C16.0058 9.64257 15.6015 10.4394 15.4433 11.1016C15.3262 11.5703 15.2969 11.6172 14.9453 11.9805C13.5742 13.3867 12.6543 15.373 12.3965 17.4883C12.3554 17.8164 12.332 21.1094 12.332 27.2324C12.332 37.4336 12.3027 36.7129 12.707 36.9062C12.9531 37.0234 13.0527 37.0234 13.2929 36.9121C13.6797 36.7305 13.6445 37.5098 13.6855 27.0683C13.7148 18.3789 13.7265 17.5351 13.8203 17.0781C14.0254 16.0644 14.4941 14.8984 15.0508 14.0312L15.2558 13.709L15.2793 17.7226C15.2969 21.5488 15.3086 21.7598 15.4199 22.2344C15.7363 23.5176 16.3047 24.5723 17.1601 25.4512C18.4785 26.8105 20.125 27.5137 22 27.5137C23.8926 27.5137 25.539 26.8047 26.8691 25.4219C27.7246 24.5312 28.2637 23.5293 28.5801 22.2344C28.6914 21.7598 28.7031 21.5488 28.7207 17.7285L28.7441 13.7148L28.9199 13.9785C29.2246 14.4238 29.6758 15.3672 29.8808 15.9883C30.3086 17.2598 30.2793 16.5215 30.3144 27.0683C30.3554 37.5098 30.3203 36.7305 30.707 36.9121C30.9472 37.0234 31.0469 37.0234 31.2929 36.9062C31.6972 36.7129 31.6679 37.4336 31.6679 27.2324C31.6679 21.1094 31.6445 17.8164 31.6035 17.4883C31.3457 15.373 30.4258 13.3867 29.0547 11.9805C28.7031 11.6172 28.6738 11.5703 28.5566 11.1016C28.3047 10.0644 27.6308 9.02147 26.8222 8.40038C26.0488 7.81444 24.9297 7.35741 23.7461 7.14061C23.1777 7.03514 21.4551 6.98827 20.8515 7.05858ZM23.2715 8.47069C24.0156 8.55858 24.6133 8.73436 25.2754 9.05663C26.0605 9.44335 26.6054 9.96483 26.9336 10.6328C27.3437 11.4648 27.332 11.3242 27.332 16.6914V21.5137L27.1914 22.0703C27.1152 22.3808 26.957 22.832 26.8398 23.084C26.6054 23.5937 26.6582 23.5879 26.1426 23.1543C25.4922 22.6094 24.4902 22.123 23.4765 21.8711C22.7383 21.6836 21.2617 21.6836 20.5234 21.8711C19.5097 22.123 18.5078 22.6094 17.8574 23.1543C17.3418 23.5879 17.3945 23.5937 17.1601 23.084C17.043 22.832 16.8847 22.3808 16.8086 22.0703L16.668 21.5137V16.6914C16.668 11.3242 16.6562 11.4648 17.0664 10.6328C17.8926 8.93944 20.2715 8.11327 23.2715 8.47069ZM22.6387 23.1133C23.6465 23.2422 24.6074 23.664 25.3926 24.3144L25.7441 24.6074L25.5859 24.7715C25.3398 25.0351 24.5195 25.5566 24.0742 25.7383C23.3418 26.043 22.8672 26.1308 22 26.1308C21.1328 26.1308 20.6582 26.043 19.9258 25.7383C19.4804 25.5566 18.6601 25.0351 18.414 24.7715L18.2558 24.6074L18.6074 24.3144C19.5273 23.5469 20.7109 23.1015 21.9121 23.0605C22.041 23.0605 22.3691 23.084 22.6387 23.1133Z" fill="#07393C"/>
</svg>
